<svg width="329" height="341" viewBox="0 0 329 341" fill="none" xmlns="http://www.w3.org/2000/svg">
<rect width="329" height="341" rx="8" fill="#F6F6F6"/>
<path d="M43.8055 142.228C47.7731 142.228 50.3652 141.799 51.5819 140.942C54.4386 139.086 56.7133 135.088 58.4062 128.948C60.1519 122.665 61.0248 114.955 61.0248 105.816C61.0248 96.8202 60.1519 89.1809 58.4062 82.8982C56.6604 76.6154 54.3857 72.6173 51.5819 70.9038C49.8891 69.9043 47.297 69.4045 43.8055 69.4045H40.314V142.228H43.8055ZM68.6425 163.646C74.0914 167.93 78.3234 176.711 81.3388 189.991C84.4071 203.128 85.9412 218.906 85.9412 237.326C85.9412 257.316 83.9839 274.451 80.0692 288.73C76.2074 302.867 71.1818 312.005 64.9924 316.146C61.6067 318.431 55.9727 319.573 48.0905 319.573H20V18H43.8055C50.6297 18 55.4966 18.9281 58.4062 20.7844C64.913 24.9253 70.2296 33.9925 74.3559 47.9859C78.4821 61.9794 80.5453 79.1142 80.5453 99.3904C80.5453 129.519 76.5777 150.224 68.6425 161.504V163.646ZM40.314 193.632V268.169H48.1698C52.9309 268.169 56.105 267.597 57.692 266.455C60.3371 264.599 62.4531 260.529 64.0401 254.246C65.6272 247.821 66.4207 240.039 66.4207 230.9C66.4207 221.762 65.6272 213.98 64.0401 207.554C62.4531 201.129 60.3371 197.059 57.692 195.346C55.8934 194.203 52.7193 193.632 48.1698 193.632H40.314Z" fill="#1E1E1E"/>
<path d="M118.515 106.03C122.43 99.8902 126.847 96.8202 131.767 96.8202C136.687 96.8202 141.077 99.8902 144.939 106.03C148.854 112.027 152.054 120.381 154.541 131.09C156.604 140.228 157.979 151.081 158.667 163.646C159.355 176.069 159.699 191.49 159.699 209.91C159.699 228.33 159.355 243.823 158.667 256.388C157.979 268.811 156.604 279.592 154.541 288.73C152.054 299.44 148.854 307.864 144.939 314.004C141.077 320.001 136.687 323 131.767 323C126.847 323 122.43 320.001 118.515 314.004C114.653 307.864 111.479 299.44 108.993 288.73C106.93 279.592 105.554 268.811 104.867 256.388C104.179 243.823 103.835 228.33 103.835 209.91C103.835 191.49 104.179 176.069 104.867 163.646C105.554 151.081 106.93 140.228 108.993 131.09C111.479 120.381 114.653 112.027 118.515 106.03ZM137.797 163.004C136.475 153.151 134.465 148.225 131.767 148.225C129.069 148.225 127.059 153.151 125.736 163.004C124.678 170.857 124.149 186.493 124.149 209.91C124.149 233.328 124.678 248.963 125.736 256.817C127.059 266.669 129.069 271.596 131.767 271.596C134.465 271.596 136.475 266.669 137.797 256.817C138.855 248.963 139.385 233.328 139.385 209.91C139.385 186.493 138.855 170.857 137.797 163.004Z" fill="#1E1E1E"/>
<path d="M232.361 321.929C225.642 322.643 220.775 323 217.76 323C210.037 323 203.926 317.717 199.43 307.15C197.631 302.867 196.15 298.369 194.986 293.657C193.875 288.945 193.108 283.947 192.685 278.664C192.262 273.38 191.997 269.168 191.891 266.027C191.786 262.885 191.733 258.744 191.733 253.604V18H212.047V249.32C212.047 257.031 212.787 262.671 214.269 266.241C215.75 269.811 218.395 271.596 222.204 271.596C225.801 271.596 229.187 271.239 232.361 270.525V321.929Z" fill="#1E1E1E"/>
<path d="M275.799 96.8202C281.936 96.8202 286.353 102.603 289.051 114.169H289.686V18H310V319.573H289.686V305.651H289.051C286.353 317.217 281.936 323 275.799 323C271.779 323 268.208 318.574 265.087 309.721C262.019 300.725 259.77 288.231 258.342 272.238C257.231 259.387 256.676 238.611 256.676 209.91C256.676 181.209 257.231 160.433 258.342 147.582C259.77 131.59 262.019 119.167 265.087 110.314C268.208 101.318 271.779 96.8202 275.799 96.8202ZM286.829 154.864C285.877 150.438 284.713 148.225 283.338 148.225C281.962 148.225 280.799 150.438 279.846 154.864C278.894 159.148 278.206 164.574 277.783 171.143C277.254 178.853 276.99 191.776 276.99 209.91C276.99 228.044 277.254 240.967 277.783 248.678C278.206 255.246 278.894 260.743 279.846 265.17C280.799 269.454 281.962 271.596 283.338 271.596C284.713 271.596 285.877 269.454 286.829 265.17C287.782 260.743 288.469 255.246 288.892 248.678C289.421 240.967 289.686 228.044 289.686 209.91C289.686 191.776 289.421 178.853 288.892 171.143C288.469 164.574 287.782 159.148 286.829 154.864Z" fill="#1E1E1E"/>
</svg>
