<svg width="414" height="53" viewBox="0 0 414 53" fill="none" xmlns="http://www.w3.org/2000/svg">
<path d="M0 3.11981C3.62248 2.41851 6.90322 2.06787 9.84221 2.06787C12.0294 2.06787 13.9431 2.39589 15.5835 3.05194C17.2467 3.70799 18.5453 4.60157 19.4794 5.73269C20.4363 6.8638 21.1425 8.10803 21.5982 9.46537C22.0538 10.8227 22.2817 12.2705 22.2817 13.8089C22.2817 15.3019 22.1222 16.5914 21.8032 17.6773C21.5071 18.7405 21.0286 19.883 20.3679 21.1046L9.97891 42.2452H22.5551V50.3892H0V43.2971L12.0977 19.2043C13.0546 17.4398 13.533 15.6413 13.533 13.8089C13.533 11.4109 12.3028 10.2119 9.84221 10.2119C7.08548 10.2119 3.80474 10.5626 0 11.2639V3.11981Z" fill="#F6F6F6"/>
<path d="M36.2419 9.36357C38.1101 4.45452 41.3453 2 45.9474 2C50.5495 2 53.7847 4.45452 55.6529 9.36357C56.063 10.4721 56.3706 11.9991 56.5756 13.9446C56.7807 15.8901 56.8946 17.666 56.9174 19.2722C56.9629 20.8557 56.9857 23.265 56.9857 26.5C56.9857 29.735 56.9629 32.1556 56.9174 33.7618C56.8946 35.3453 56.7807 37.1099 56.5756 39.0554C56.3706 41.0009 56.063 42.5279 55.6529 43.6364C53.7847 48.5455 50.5495 51 45.9474 51C41.3453 51 38.1101 48.5455 36.2419 43.6364C35.8318 42.5279 35.5242 41.0009 35.3192 39.0554C35.1141 37.1099 34.9888 35.3453 34.9433 33.7618C34.9205 32.1556 34.9091 29.735 34.9091 26.5C34.9091 23.265 34.9205 20.8557 34.9433 19.2722C34.9888 17.666 35.1141 15.8901 35.3192 13.9446C35.5242 11.9991 35.8318 10.4721 36.2419 9.36357ZM45.9474 10.2798C44.9677 10.2798 44.2729 11.705 43.8628 14.5554C43.6349 16.0711 43.521 20.0526 43.521 26.5V30.063L48.1004 15.0983C47.9409 13.7636 47.6789 12.6325 47.3144 11.705C46.9498 10.7548 46.4942 10.2798 45.9474 10.2798ZM43.7944 37.9017C43.9539 39.2364 44.2159 40.3788 44.5804 41.3289C44.945 42.2565 45.4006 42.7202 45.9474 42.7202C46.9271 42.7202 47.6219 41.295 48.032 38.4446C48.2599 36.9289 48.3738 32.9474 48.3738 26.5V22.937L43.7944 37.9017Z" fill="#F6F6F6"/>
<path d="M70.0232 3.11981C73.6457 2.41851 76.9264 2.06787 79.8654 2.06787C82.0526 2.06787 83.9664 2.39589 85.6067 3.05194C87.2699 3.70799 88.5685 4.60157 89.5026 5.73269C90.4595 6.8638 91.1658 8.10803 91.6214 9.46537C92.0771 10.8227 92.3049 12.2705 92.3049 13.8089C92.3049 15.3019 92.1454 16.5914 91.8265 17.6773C91.5303 18.7405 91.0518 19.883 90.3911 21.1046L80.0021 42.2452H92.5783V50.3892H70.0232V43.2971L82.1209 19.2043C83.0778 17.4398 83.5563 15.6413 83.5563 13.8089C83.5563 11.4109 82.326 10.2119 79.8654 10.2119C77.1087 10.2119 73.828 10.5626 70.0232 11.2639V3.11981Z" fill="#F6F6F6"/>
<path d="M105.035 41.6683C108.748 42.4148 111.984 42.7881 114.74 42.7881C115.72 42.7881 116.54 42.5958 117.201 42.2112C117.862 41.8266 118.351 41.2611 118.67 40.5145C118.989 39.768 119.206 38.9762 119.32 38.1392C119.456 37.3022 119.525 36.3068 119.525 35.153C119.525 30.1083 118.181 27.5859 115.492 27.5859C114.034 27.5859 112.906 28.027 112.109 28.9093L105.035 27.0769V2.6108H126.906V10.7548H113.783V21.3421H114.125C115.515 20.4598 117.019 20.0187 118.636 20.0187C124.879 20.0187 128 25.0861 128 35.2209C128 40.5598 126.952 44.5187 124.856 47.0976C122.783 49.654 119.639 50.9321 115.424 50.9321C112.644 50.9321 109.181 50.5815 105.035 49.8802V41.6683Z" fill="#F6F6F6"/>
<path d="M212.775 50.4556H204V2.54445H212.775L219.184 17.4486H219.561L225.937 2.54445H234.712V50.4556H225.937V19.9667H225.594L221.241 28.6778H217.471L213.118 19.8306H212.775V50.4556Z" fill="#F6F6F6"/>
<path d="M248.383 17.7208C248.04 19.581 247.869 22.5074 247.869 26.5C247.869 30.4926 248.04 33.419 248.383 35.2792C248.794 37.4796 249.549 39.2944 250.645 40.7236C251.765 42.1301 253.216 42.8333 254.999 42.8333C256.781 42.8333 258.221 42.1301 259.317 40.7236C260.437 39.2944 261.203 37.4796 261.614 35.2792C261.957 33.3963 262.128 30.4699 262.128 26.5C262.128 22.5074 261.957 19.581 261.614 17.7208C261.203 15.5204 260.437 13.7169 259.317 12.3104C258.221 10.8813 256.781 10.1667 254.999 10.1667C253.216 10.1667 251.765 10.8813 250.645 12.3104C249.549 13.7169 248.794 15.5204 248.383 17.7208ZM240.054 38.3757C239.414 35.8576 239.094 31.8991 239.094 26.5C239.094 21.1009 239.414 17.1424 240.054 14.6243C240.968 10.9493 242.693 7.93218 245.23 5.57292C247.766 3.19097 251.022 2 254.999 2C258.975 2 262.231 3.19097 264.767 5.57292C267.304 7.93218 269.029 10.9493 269.943 14.6243C270.583 17.1424 270.903 21.1009 270.903 26.5C270.903 31.8991 270.583 35.8576 269.943 38.3757C269.029 42.0507 267.304 45.0792 264.767 47.4611C262.231 49.8204 258.975 51 254.999 51C251.022 51 247.766 49.8204 245.23 47.4611C242.693 45.0792 240.968 42.0507 240.054 38.3757Z" fill="#F6F6F6"/>
<path d="M286.254 50.4556H277.479V2.54445H286.22L294.686 29.6986H295.029V2.54445H303.803V50.4556H295.029L286.597 23.3014H286.254V50.4556Z" fill="#F6F6F6"/>
<path d="M319.669 17.7208C319.326 19.581 319.154 22.5074 319.154 26.5C319.154 30.4926 319.326 33.419 319.669 35.2792C320.08 37.4796 320.834 39.2944 321.931 40.7236C323.05 42.1301 324.502 42.8333 326.284 42.8333C328.066 42.8333 329.506 42.1301 330.603 40.7236C331.722 39.2944 332.488 37.4796 332.899 35.2792C333.242 33.3963 333.413 30.4699 333.413 26.5C333.413 22.5074 333.242 19.581 332.899 17.7208C332.488 15.5204 331.722 13.7169 330.603 12.3104C329.506 10.8813 328.066 10.1667 326.284 10.1667C324.502 10.1667 323.05 10.8813 321.931 12.3104C320.834 13.7169 320.08 15.5204 319.669 17.7208ZM311.339 38.3757C310.7 35.8576 310.38 31.8991 310.38 26.5C310.38 21.1009 310.7 17.1424 311.339 14.6243C312.253 10.9493 313.979 7.93218 316.515 5.57292C319.052 3.19097 322.308 2 326.284 2C330.26 2 333.516 3.19097 336.053 5.57292C338.589 7.93218 340.314 10.9493 341.228 14.6243C341.868 17.1424 342.188 21.1009 342.188 26.5C342.188 31.8991 341.868 35.8576 341.228 38.3757C340.314 42.0507 338.589 45.0792 336.053 47.4611C333.516 49.8204 330.26 51 326.284 51C322.308 51 319.052 49.8204 316.515 47.4611C313.979 45.0792 312.253 42.0507 311.339 38.3757Z" fill="#F6F6F6"/>
<path d="M373.509 2.54445V10.7111H364.734V42.2889H373.509V50.4556H347.185V42.2889H355.96V10.7111H347.185V2.54445H373.509Z" fill="#F6F6F6"/>
<path d="M394.6 2.54445C401.958 2.54445 407.316 5.23264 410.675 10.609C411.978 12.6507 412.857 14.9646 413.314 17.5507C413.771 20.1368 414 23.1199 414 26.5C414 29.8801 413.771 32.8632 413.314 35.4493C412.857 38.0354 411.978 40.3493 410.675 42.391C407.316 47.7674 401.958 50.4556 394.6 50.4556H382.74V2.54445H394.6ZM403.271 37.9333C404.574 35.7556 405.225 31.9444 405.225 26.5C405.225 21.0556 404.574 17.2444 403.271 15.0667C401.558 12.163 398.907 10.7111 395.319 10.7111H391.515V42.2889H395.319C398.907 42.2889 401.558 40.837 403.271 37.9333Z" fill="#F6F6F6"/>
<path d="M174.099 40.5795C171.625 41.0578 169.372 41.297 167.339 41.297C163.599 41.297 160.874 40.3703 159.166 38.5169C158.371 37.65 157.767 36.4992 157.355 35.0643C156.972 33.6294 156.751 32.359 156.692 31.253C156.633 30.1469 156.603 28.5028 156.603 26.3206C156.603 21.9862 156.942 18.9371 157.62 17.1734C159.033 13.5265 162.288 11.703 167.384 11.703C169.386 11.703 171.625 11.987 174.099 12.555V17.9357C171.684 17.3677 169.416 17.0838 167.295 17.0838C166.029 17.0838 165.057 17.2183 164.379 17.4873C163.731 17.7563 163.245 18.2645 162.921 19.0118C162.48 20.0282 162.259 22.4645 162.259 26.3206C162.259 29.0708 162.318 31.0736 162.435 32.3291C162.583 33.5547 162.907 34.4365 163.407 34.9746C163.672 35.2735 164.026 35.4977 164.468 35.6472C164.909 35.7967 165.307 35.8864 165.661 35.9162C166.043 35.9162 166.603 35.9162 167.339 35.9162C169.431 35.9162 171.684 35.6771 174.099 35.1988V40.5795ZM166.5 3.67682C162.759 3.67682 159.637 4.63339 157.134 6.54653C154.63 8.42978 152.804 10.9557 151.655 14.1244C150.477 17.4126 149.888 21.5378 149.888 26.5C149.888 31.4622 150.477 35.5874 151.655 38.8756C152.804 42.0742 154.615 44.6151 157.089 46.4983C159.593 48.3816 162.73 49.3232 166.5 49.3232C170.241 49.3232 173.363 48.3816 175.866 46.4983C178.37 44.5852 180.196 42.0443 181.345 38.8756C182.523 35.5874 183.112 31.4622 183.112 26.5C183.112 21.5378 182.523 17.4126 181.345 14.1244C180.196 10.9258 178.37 8.38494 175.866 6.50169C173.392 4.61844 170.27 3.67682 166.5 3.67682ZM154.792 3.58714C158.003 1.19571 161.905 0 166.5 0C171.095 0 174.983 1.19571 178.164 3.58714C181.374 5.94867 183.672 9.07248 185.056 12.9585C186.352 16.5457 187 21.0595 187 26.5C187 31.9405 186.352 36.4543 185.056 40.0415C183.672 43.9275 181.374 47.0663 178.164 49.4577C174.983 51.8192 171.095 53 166.5 53C161.905 53 158.003 51.8192 154.792 49.4577C151.611 47.0663 149.328 43.9275 147.944 40.0415C146.648 36.4543 146 31.9405 146 26.5C146 21.0595 146.648 16.5457 147.944 12.9585C149.328 9.07248 151.611 5.94867 154.792 3.58714Z" fill="white"/>
</svg>
