<svg width="329" height="341" viewBox="0 0 329 341" fill="none" xmlns="http://www.w3.org/2000/svg">
<rect width="329" height="341" rx="8" fill="#5C96FF"/>
<path d="M115.568 51.6352L109.602 55.6126L98.9949 45.006L41.1972 83.9936L51.8038 94.6002L45.8791 98.6191L19.3625 72.1026L25.2873 68.0837L35.8939 78.6903L93.6916 39.7027L83.085 29.0961L89.0512 25.1187L115.568 51.6352Z" fill="#1E1E1E"/>
<path d="M84.8873 117.243C82.9262 119.204 82.0561 121.289 82.2771 123.499C82.5257 125.681 83.741 127.863 85.9231 130.045C87.8842 132.006 90.6464 134.354 94.2095 137.089L88.2847 141.108C84.8045 138.456 81.9042 135.97 79.584 133.65C76.2418 130.308 74.4326 126.786 74.1564 123.085C73.9078 119.356 75.3165 115.958 78.3825 112.892C79.7636 111.511 81.9456 109.826 84.9287 107.838L111.57 89.8976L100.963 79.291L107.178 75.065L117.784 85.6716L130.463 77.1366L135.766 82.4399L123.088 90.9749L138.998 106.885L132.783 111.111L116.873 95.2009L90.7292 112.81C87.8014 114.798 85.8541 116.276 84.8873 117.243Z" fill="#1E1E1E"/>
<path d="M150.826 161.14L142.706 153.019C141.684 151.997 140.855 151.224 140.22 150.699C139.585 150.174 138.618 149.622 137.32 149.042C136.049 148.434 134.682 148.089 133.218 148.006C131.119 147.896 128.95 148.241 126.713 149.042C124.503 149.871 122.597 151.086 120.995 152.688C119.145 154.539 118.164 156.569 118.054 158.778C117.971 160.96 118.896 163.018 120.83 164.952C122.155 166.278 123.564 167.3 125.056 168.018C126.575 168.764 128.011 169.233 129.365 169.426C130.773 169.62 132.265 169.592 133.839 169.344C135.441 169.067 136.836 168.722 138.024 168.308C139.267 167.893 140.634 167.3 142.126 166.526C143.617 165.753 144.805 165.09 145.689 164.537C146.573 163.985 147.609 163.308 148.796 162.507L150.826 161.14ZM170.299 136.861C173.78 140.341 175.589 143.614 175.727 146.68C175.838 149.884 174.747 152.633 172.454 154.925C171.625 155.754 170.092 156.955 167.855 158.53L130.773 183.513L125.47 178.21L131.561 174.108L131.146 173.694C123.771 173.998 118.026 172.092 113.91 167.976C111.093 165.159 109.726 161.941 109.809 158.323C109.919 154.677 111.48 151.348 114.491 148.338C116.755 146.073 119.545 144.305 122.86 143.034C126.23 141.764 129.599 141.266 132.969 141.543C134.875 141.736 136.657 142.109 138.314 142.661C139.971 143.214 141.449 143.946 142.747 144.857C144.101 145.769 145.109 146.528 145.772 147.136C146.462 147.716 147.277 148.476 148.216 149.415L156.254 157.453L162.303 153.392C164.319 151.984 165.59 151.017 166.115 150.492C167.441 149.166 167.979 147.744 167.731 146.224C167.537 144.705 166.419 142.924 164.375 140.88C161.06 137.565 156.737 133.823 151.406 129.652L157.414 125.55C162.607 129.693 166.902 133.463 170.299 136.861Z" fill="#1E1E1E"/>
<path d="M172.848 208.766C170.113 211.501 170.182 214.304 173.055 217.177C174.905 219.027 176.756 220.74 178.607 222.314L172.682 226.333C169.92 223.847 167.931 221.997 166.716 220.781C164.036 218.102 162.738 215.285 162.821 212.329C162.904 209.374 164.147 206.695 166.55 204.292C167.406 203.435 168.925 202.248 171.107 200.728L226.999 163.067L232.303 168.37L176.411 206.032C174.698 207.192 173.51 208.103 172.848 208.766Z" fill="#1E1E1E"/>
<path d="M262.859 208.953C264.516 207.295 266.436 206.508 268.618 206.591C270.827 206.646 272.692 207.433 274.211 208.953C275.371 210.113 275.965 211.369 275.993 212.723C276.048 214.104 275.537 215.333 274.46 216.41C272.802 218.068 270.869 218.869 268.659 218.813C266.477 218.731 264.626 217.93 263.107 216.41C261.947 215.25 261.339 213.98 261.284 212.599C261.257 211.245 261.781 210.03 262.859 208.953ZM202.409 255.149L247.156 224.987L236.549 214.38L242.474 210.361L258.384 226.271L207.713 260.453L202.409 255.149Z" fill="#1E1E1E"/>
<path d="M255.629 265.942C258.142 264.257 260.131 262.959 261.595 262.048C263.087 261.164 264.882 260.225 266.981 259.23C269.136 258.236 271.207 257.518 273.196 257.076C282.587 254.921 290.708 257.269 297.558 264.119C300.348 266.909 303.8 270.831 307.916 275.886L301.991 279.905C297.82 274.795 294.368 270.873 291.633 268.138C289.258 265.763 286.813 264.23 284.3 263.539C281.841 262.849 279.093 262.807 276.055 263.415C274.48 263.719 272.726 264.34 270.793 265.279C268.859 266.219 267.313 267.047 266.152 267.765C265.02 268.511 263.28 269.671 260.932 271.246C256.236 274.395 253.032 276.825 251.32 278.538C245.685 284.172 245.657 289.78 251.237 295.359C254.441 298.563 258.874 302.278 264.537 306.504L258.612 310.523C253.005 306.352 248.571 302.637 245.312 299.378C241.086 295.152 239.015 290.843 239.097 286.451C239.208 282.032 241.197 277.889 245.064 274.022C247.025 272.061 250.546 269.367 255.629 265.942Z" fill="#1E1E1E"/>
</svg>
