<svg width="678" height="92" viewBox="0 0 678 92" fill="none" xmlns="http://www.w3.org/2000/svg">
<rect x="1" y="1" width="676" height="90" rx="7" stroke="white" stroke-width="2"/>
<path d="M202.75 31.5H217.75V59H212.75V36.1875H207.75V59H202.75V31.5ZM226.998 39.5273C227.962 38.9674 229.049 38.6875 230.26 38.6875C231.471 38.6875 232.551 38.9674 233.502 39.5273C234.465 40.0742 235.253 40.8359 235.865 41.8125C236.373 42.6458 236.712 43.6354 236.881 44.7812C237.05 45.9141 237.135 47.3203 237.135 49C237.135 50.6797 237.05 52.0924 236.881 53.2383C236.712 54.3711 236.373 55.3542 235.865 56.1875C235.253 57.1641 234.465 57.9323 233.502 58.4922C232.551 59.0391 231.471 59.3125 230.26 59.3125C229.049 59.3125 227.962 59.0391 226.998 58.4922C226.048 57.9323 225.266 57.1641 224.654 56.1875C224.146 55.3542 223.808 54.3711 223.639 53.2383C223.469 52.0924 223.385 50.6797 223.385 49C223.385 47.3203 223.469 45.9141 223.639 44.7812C223.808 43.6354 224.146 42.6458 224.654 41.8125C225.266 40.8359 226.048 40.0742 226.998 39.5273ZM231.744 44.7227C231.419 43.8242 230.924 43.375 230.26 43.375C229.596 43.375 229.101 43.8242 228.775 44.7227C228.515 45.4388 228.385 46.8646 228.385 49C228.385 51.1354 228.515 52.5612 228.775 53.2773C229.101 54.1758 229.596 54.625 230.26 54.625C230.924 54.625 231.419 54.1758 231.744 53.2773C232.005 52.5612 232.135 51.1354 232.135 49C232.135 46.8646 232.005 45.4388 231.744 44.7227ZM243.531 52.5937C243.44 51.6562 243.395 50.4583 243.395 49C243.395 47.5417 243.44 46.3438 243.531 45.4062C243.635 44.4688 243.87 43.5898 244.234 42.7695C245.419 40.0482 247.626 38.6875 250.855 38.6875C252.327 38.6875 254.15 38.8047 256.324 39.0391V43.7266C254.124 43.4922 252.301 43.375 250.855 43.375C250.296 43.375 249.853 43.5247 249.527 43.8242C249.202 44.1237 248.935 44.5794 248.727 45.1914C248.505 45.8685 248.395 47.138 248.395 49C248.395 50.862 248.505 52.1315 248.727 52.8086C248.935 53.4206 249.202 53.8763 249.527 54.1758C249.853 54.4753 250.296 54.625 250.855 54.625C252.379 54.625 254.267 54.4557 256.52 54.1172V58.8047C254.28 59.1432 252.392 59.3125 250.855 59.3125C247.626 59.3125 245.419 57.9518 244.234 55.2305C243.87 54.4102 243.635 53.5312 243.531 52.5937ZM276.529 39V59H271.529V43.6875H269.029V52.6719C269.029 53.8047 268.88 54.7747 268.58 55.582C268.281 56.3893 267.786 57.099 267.096 57.7109C266.419 58.3099 265.65 58.7266 264.791 58.9609C263.945 59.1953 262.857 59.3125 261.529 59.3125V54.625C262.454 54.625 263.092 54.4818 263.443 54.1953C263.834 53.8698 264.029 53.362 264.029 52.6719V39H276.529ZM290.406 52.3008C291.5 48.1602 292.405 43.7266 293.121 39H298.121C297.561 42.5026 297.008 45.5169 296.461 48.043C295.914 50.569 295.146 53.388 294.156 56.5C293.883 57.3594 293.655 58.043 293.473 58.5508C293.29 59.0456 293.056 59.6185 292.77 60.2695C292.483 60.9206 292.164 61.4609 291.812 61.8906C291.474 62.3333 291.096 62.6914 290.68 62.9648C290.172 63.2773 289.723 63.5117 289.332 63.668C288.954 63.8372 288.316 63.987 287.418 64.1172C286.533 64.2474 285.406 64.3125 284.039 64.3125V59.625C284.99 59.625 285.706 59.5924 286.188 59.5273C286.682 59.4753 287.099 59.3255 287.438 59.0781C287.776 58.8437 288.023 58.5703 288.18 58.2578C288.336 57.9323 288.544 57.4245 288.805 56.7344C288.844 56.6302 288.87 56.5521 288.883 56.5H286.949C285.947 53.9609 285.1 51.2982 284.41 48.5117C283.733 45.7253 283.082 42.5547 282.457 39H287.477C288.128 43.7526 289.039 48.1862 290.211 52.3008H290.406ZM301.549 59V39H306.549V54.3125H309.049V39H311.549V54.3125H314.049V39H319.049V59H301.549ZM331.559 50.7773H330.23C329.592 50.7773 329.13 50.9661 328.844 51.3437C328.57 51.7083 328.434 52.2878 328.434 53.082C328.434 53.5247 328.538 53.8958 328.746 54.1953C328.954 54.4818 329.254 54.625 329.645 54.625C330.087 54.625 330.445 54.5143 330.719 54.293C331.005 54.0716 331.201 53.7591 331.305 53.3555C331.422 52.9388 331.493 52.5872 331.52 52.3008C331.546 52.0143 331.559 51.6562 331.559 51.2266V50.7773ZM330.934 38.6875C332.053 38.6875 333.036 38.8633 333.883 39.2148C334.729 39.5534 335.426 40.2044 335.973 41.168C336.363 41.8581 336.559 42.9258 336.559 44.3711V59H331.559V57.9648H331.363C330.634 58.8633 329.71 59.3125 328.59 59.3125C327.21 59.3125 326.005 58.7201 324.977 57.5352C323.948 56.3503 323.434 54.8789 323.434 53.1211C323.434 51.207 324.007 49.6315 325.152 48.3945C325.569 47.9518 326.012 47.5937 326.48 47.3203C326.962 47.0339 327.451 46.8385 327.945 46.7344C328.453 46.6302 328.857 46.5651 329.156 46.5391C329.469 46.513 329.84 46.5 330.27 46.5H331.559V44.4688C331.559 44.2083 331.448 43.9674 331.227 43.7461C331.005 43.5117 330.719 43.3945 330.367 43.3945C329.169 43.3945 327.483 43.5182 325.309 43.7656V39.0586C327.457 38.8112 329.332 38.6875 330.934 38.6875ZM359.068 39V43.8828H352.818V59H347.818V43.8828H341.568V39H359.068ZM369.098 45.3281H370.484C371.526 45.3281 372.34 45.4062 372.926 45.5625C374.215 45.9141 375.25 46.6823 376.031 47.8672C376.813 49.0391 377.203 50.4714 377.203 52.1641C377.203 53.8568 376.813 55.2956 376.031 56.4805C375.25 57.6523 374.215 58.4141 372.926 58.7656C372.34 58.9219 371.526 59 370.484 59H364.078V39H369.098V45.3281ZM369.078 50.0156V54.3125H370.484C371.63 54.3125 372.203 53.5964 372.203 52.1641C372.203 50.7318 371.63 50.0156 370.484 50.0156H369.078ZM408.121 54.3125H411.598V43.6875H409.098C409.098 47.8672 408.772 51.4089 408.121 54.3125ZM403.063 54.3125C403.375 52.75 403.609 51.0573 403.766 49.2344C403.935 47.3984 404.033 45.8294 404.059 44.5273C404.085 43.2122 404.098 41.3698 404.098 39H416.598V54.3125H419.098V64H414.098V59H405.348V64H400.348V54.3125H403.063ZM430.357 38.6875C431.868 38.6875 433.157 39.0586 434.225 39.8008C435.292 40.5299 436.054 41.4674 436.51 42.6133C436.731 43.1732 436.894 43.8307 436.998 44.5859C437.115 45.3411 437.18 46.0117 437.193 46.5977C437.219 47.1706 437.232 47.9714 437.232 49V51.3437H428.502C428.502 52.4115 428.6 53.1602 428.795 53.5898C429.133 54.2799 429.785 54.625 430.748 54.625C432.167 54.625 434.12 54.4948 436.607 54.2344V58.9023C434.238 59.1758 432.285 59.3125 430.748 59.3125C429.133 59.3125 427.773 58.9349 426.666 58.1797C425.559 57.4245 424.758 56.4414 424.264 55.2305C423.925 54.4102 423.71 53.5312 423.619 52.5937C423.528 51.6562 423.482 50.4583 423.482 49C423.482 47.5026 423.521 46.2721 423.6 45.3086C423.691 44.332 423.893 43.4336 424.205 42.6133C424.635 41.4544 425.383 40.5104 426.451 39.7812C427.532 39.0521 428.834 38.6875 430.357 38.6875ZM430.357 43.375C430.136 43.375 429.934 43.401 429.752 43.4531C429.57 43.4922 429.413 43.5768 429.283 43.707C429.166 43.8242 429.062 43.9349 428.971 44.0391C428.88 44.1302 428.801 44.293 428.736 44.5273C428.684 44.7487 428.639 44.9245 428.6 45.0547C428.574 45.1849 428.548 45.4062 428.521 45.7187C428.508 46.0182 428.502 46.2331 428.502 46.3633C428.502 46.4805 428.495 46.7083 428.482 47.0469H432.232C432.206 45.7057 432.102 44.8203 431.92 44.3906C431.66 43.7135 431.139 43.375 430.357 43.375ZM446.617 59H441.617V39H446.617L450.27 47.5547H450.484L454.117 39H459.117V59H454.117V49H453.922L451.441 54H449.293L446.813 48.9219H446.617V59ZM467.115 39.5273C468.079 38.9674 469.166 38.6875 470.377 38.6875C471.588 38.6875 472.669 38.9674 473.619 39.5273C474.583 40.0742 475.37 40.8359 475.982 41.8125C476.49 42.6458 476.829 43.6354 476.998 44.7812C477.167 45.9141 477.252 47.3203 477.252 49C477.252 50.6797 477.167 52.0924 476.998 53.2383C476.829 54.3711 476.49 55.3542 475.982 56.1875C475.37 57.1641 474.583 57.9323 473.619 58.4922C472.669 59.0391 471.588 59.3125 470.377 59.3125C469.166 59.3125 468.079 59.0391 467.115 58.4922C466.165 57.9323 465.383 57.1641 464.771 56.1875C464.264 55.3542 463.925 54.3711 463.756 53.2383C463.587 52.0924 463.502 50.6797 463.502 49C463.502 47.3203 463.587 45.9141 463.756 44.7812C463.925 43.6354 464.264 42.6458 464.771 41.8125C465.383 40.8359 466.165 40.0742 467.115 39.5273ZM471.861 44.7227C471.536 43.8242 471.041 43.375 470.377 43.375C469.713 43.375 469.218 43.8242 468.893 44.7227C468.632 45.4388 468.502 46.8646 468.502 49C468.502 51.1354 468.632 52.5612 468.893 53.2773C469.218 54.1758 469.713 54.625 470.377 54.625C471.041 54.625 471.536 54.1758 471.861 53.2773C472.122 52.5612 472.252 51.1354 472.252 49C472.252 46.8646 472.122 45.4388 471.861 44.7227Z" fill="white"/>
</svg>
