<svg width="678" height="92" viewBox="0 0 678 92" fill="none" xmlns="http://www.w3.org/2000/svg">
<rect width="678" height="92" rx="8" fill="white"/>
<path d="M157.492 31.1875C158.898 31.1875 160.135 31.3763 161.203 31.7539C162.271 32.1315 163.13 32.6654 163.781 33.3555C164.432 34.0456 164.921 34.8464 165.246 35.7578C165.572 36.6693 165.734 37.6849 165.734 38.8047C165.734 40.1458 165.493 41.3698 165.012 42.4766C164.53 43.5703 163.84 44.4362 162.941 45.0742V45.2695C163.931 45.8815 164.706 46.7539 165.266 47.8867C165.839 49.0065 166.125 50.2565 166.125 51.6367V51.6953C166.112 53.9349 165.389 55.7643 163.957 57.1836C162.525 58.6029 160.435 59.3125 157.688 59.3125C155.487 59.3125 153.091 59.013 150.5 58.4141V53.707C153.234 54.319 155.565 54.625 157.492 54.625C159.914 54.625 161.125 53.5182 161.125 51.3047C161.125 49.9896 160.852 49.0456 160.305 48.4727C159.771 47.8867 158.807 47.5937 157.414 47.5937H154.25V42.9062H157.434C158.749 42.9062 159.628 42.6133 160.07 42.0273C160.513 41.4414 160.734 40.4974 160.734 39.1953C160.734 38.1406 160.487 37.3268 159.992 36.7539C159.51 36.168 158.677 35.875 157.492 35.875C157.219 35.875 156.945 35.8815 156.672 35.8945C156.411 35.9076 156.125 35.9271 155.813 35.9531C155.513 35.9792 155.253 36.0052 155.031 36.0312C154.823 36.0443 154.549 36.0768 154.211 36.1289C153.872 36.181 153.618 36.2201 153.449 36.2461C153.293 36.2721 153.026 36.3242 152.648 36.4023C152.284 36.4674 152.049 36.513 151.945 36.5391C151.841 36.5521 151.587 36.5977 151.184 36.6758C150.78 36.7539 150.552 36.7995 150.5 36.8125V32.125C153.234 31.5 155.565 31.1875 157.492 31.1875ZM180.51 50.7773H179.182C178.544 50.7773 178.081 50.9661 177.795 51.3437C177.521 51.7083 177.385 52.2878 177.385 53.082C177.385 53.5247 177.489 53.8958 177.697 54.1953C177.906 54.4818 178.205 54.625 178.596 54.625C179.038 54.625 179.396 54.5143 179.67 54.293C179.956 54.0716 180.152 53.7591 180.256 53.3555C180.373 52.9388 180.445 52.5872 180.471 52.3008C180.497 52.0143 180.51 51.6562 180.51 51.2266V50.7773ZM179.885 38.6875C181.005 38.6875 181.988 38.8633 182.834 39.2148C183.68 39.5534 184.377 40.2044 184.924 41.168C185.314 41.8581 185.51 42.9258 185.51 44.3711V59H180.51V57.9648H180.314C179.585 58.8633 178.661 59.3125 177.541 59.3125C176.161 59.3125 174.956 58.7201 173.928 57.5352C172.899 56.3503 172.385 54.8789 172.385 53.1211C172.385 51.207 172.958 49.6315 174.104 48.3945C174.52 47.9518 174.963 47.5937 175.432 47.3203C175.913 47.0339 176.402 46.8385 176.896 46.7344C177.404 46.6302 177.808 46.5651 178.107 46.5391C178.42 46.513 178.791 46.5 179.221 46.5H180.51V44.4688C180.51 44.2083 180.399 43.9674 180.178 43.7461C179.956 43.5117 179.67 43.3945 179.318 43.3945C178.12 43.3945 176.434 43.5182 174.26 43.7656V39.0586C176.408 38.8112 178.283 38.6875 179.885 38.6875ZM200.754 44.7227C200.428 43.8242 199.934 43.375 199.27 43.375C198.605 43.375 198.111 43.8242 197.785 44.7227C197.525 45.4388 197.395 46.8646 197.395 49C197.395 51.1354 197.525 52.5612 197.785 53.2773C198.111 54.1758 198.605 54.625 199.27 54.625C199.934 54.625 200.428 54.1758 200.754 53.2773C201.014 52.5612 201.145 51.1354 201.145 49C201.145 46.8646 201.014 45.4388 200.754 44.7227ZM199.934 38.8828C201.314 38.8828 202.486 39.2539 203.449 39.9961C204.413 40.7253 205.077 41.6628 205.441 42.8086C205.91 44.2409 206.145 46.3047 206.145 49C206.145 49.9896 206.132 50.7578 206.105 51.3047C206.092 51.8385 206.021 52.4701 205.891 53.1992C205.773 53.9154 205.598 54.5794 205.363 55.1914C204.283 57.9388 202.121 59.3125 198.879 59.3125C197.59 59.3125 196.431 58.9219 195.402 58.1406C194.374 57.3464 193.632 56.3633 193.176 55.1914C192.655 53.8242 192.395 52.1771 192.395 50.25C192.395 47.6458 192.401 45.7383 192.414 44.5273C192.427 43.3034 192.466 42.0404 192.531 40.7383C192.596 39.4232 192.694 38.4727 192.824 37.8867C193.293 35.8424 194.204 34.319 195.559 33.3164C196.392 32.6914 197.258 32.2422 198.156 31.9687C199.068 31.6953 199.862 31.5651 200.539 31.5781C201.229 31.5781 202.049 31.5586 203 31.5195C203.951 31.4674 204.79 31.3437 205.52 31.1484V35.8945C204.79 36.0768 203.905 36.181 202.863 36.207C201.835 36.2331 200.93 36.3047 200.148 36.4219C199.367 36.526 198.697 36.7865 198.137 37.2031C197.603 37.6068 197.316 38.4531 197.277 39.7422H197.473C198.241 39.1693 199.061 38.8828 199.934 38.8828ZM221.447 59.625C219.937 59.625 218.85 59.0977 218.186 58.043H218.029V66.8125H213.029V39.3125H218.029V40.582H218.186C218.85 39.5273 219.937 39 221.447 39C222.437 39 223.309 39.4102 224.064 40.2305C224.833 41.0378 225.393 42.1706 225.744 43.6289C226.018 44.8008 226.154 46.6953 226.154 49.3125C226.154 51.9297 226.018 53.8242 225.744 54.9961C225.393 56.4544 224.833 57.5938 224.064 58.4141C223.309 59.2214 222.437 59.625 221.447 59.625ZM218.732 54.3516C218.967 54.7422 219.253 54.9375 219.592 54.9375C219.93 54.9375 220.217 54.7422 220.451 54.3516C220.686 53.9479 220.855 53.4466 220.959 52.8477C221.089 52.1445 221.154 50.9661 221.154 49.3125C221.154 47.6589 221.089 46.4805 220.959 45.7773C220.855 45.1784 220.686 44.6836 220.451 44.293C220.217 43.8893 219.93 43.6875 219.592 43.6875C219.253 43.6875 218.967 43.8893 218.732 44.293C218.498 44.6836 218.329 45.1784 218.225 45.7773C218.094 46.4805 218.029 47.6589 218.029 49.3125C218.029 50.9661 218.094 52.1445 218.225 52.8477C218.329 53.4466 218.498 53.9479 218.732 54.3516ZM236.027 39.5273C236.991 38.9674 238.078 38.6875 239.289 38.6875C240.5 38.6875 241.581 38.9674 242.531 39.5273C243.495 40.0742 244.283 40.8359 244.895 41.8125C245.402 42.6458 245.741 43.6354 245.91 44.7812C246.079 45.9141 246.164 47.3203 246.164 49C246.164 50.6797 246.079 52.0924 245.91 53.2383C245.741 54.3711 245.402 55.3542 244.895 56.1875C244.283 57.1641 243.495 57.9323 242.531 58.4922C241.581 59.0391 240.5 59.3125 239.289 59.3125C238.078 59.3125 236.991 59.0391 236.027 58.4922C235.077 57.9323 234.296 57.1641 233.684 56.1875C233.176 55.3542 232.837 54.3711 232.668 53.2383C232.499 52.0924 232.414 50.6797 232.414 49C232.414 47.3203 232.499 45.9141 232.668 44.7812C232.837 43.6354 233.176 42.6458 233.684 41.8125C234.296 40.8359 235.077 40.0742 236.027 39.5273ZM240.773 44.7227C240.448 43.8242 239.953 43.375 239.289 43.375C238.625 43.375 238.13 43.8242 237.805 44.7227C237.544 45.4388 237.414 46.8646 237.414 49C237.414 51.1354 237.544 52.5612 237.805 53.2773C238.13 54.1758 238.625 54.625 239.289 54.625C239.953 54.625 240.448 54.1758 240.773 53.2773C241.034 52.5612 241.164 51.1354 241.164 49C241.164 46.8646 241.034 45.4388 240.773 44.7227ZM253.049 39H258.049V46.5H260.549V39H265.549V59H260.549V51.1875H258.049V59H253.049V39ZM280.559 59V49.1562H280.363L277.277 59H273.059V39H278.059V49.0391H278.254L281.359 39H285.559V59H280.559ZM301.486 59.625C299.976 59.625 298.889 59.0977 298.225 58.043H298.068V66.8125H293.068V39.3125H298.068V40.582H298.225C298.889 39.5273 299.976 39 301.486 39C302.476 39 303.348 39.4102 304.104 40.2305C304.872 41.0378 305.432 42.1706 305.783 43.6289C306.057 44.8008 306.193 46.6953 306.193 49.3125C306.193 51.9297 306.057 53.8242 305.783 54.9961C305.432 56.4544 304.872 57.5938 304.104 58.4141C303.348 59.2214 302.476 59.625 301.486 59.625ZM298.771 54.3516C299.006 54.7422 299.292 54.9375 299.631 54.9375C299.969 54.9375 300.256 54.7422 300.49 54.3516C300.725 53.9479 300.894 53.4466 300.998 52.8477C301.128 52.1445 301.193 50.9661 301.193 49.3125C301.193 47.6589 301.128 46.4805 300.998 45.7773C300.894 45.1784 300.725 44.6836 300.49 44.293C300.256 43.8893 299.969 43.6875 299.631 43.6875C299.292 43.6875 299.006 43.8893 298.771 44.293C298.537 44.6836 298.368 45.1784 298.264 45.7773C298.133 46.4805 298.068 47.6589 298.068 49.3125C298.068 50.9661 298.133 52.1445 298.264 52.8477C298.368 53.4466 298.537 53.9479 298.771 54.3516ZM316.066 39.5273C317.03 38.9674 318.117 38.6875 319.328 38.6875C320.539 38.6875 321.62 38.9674 322.57 39.5273C323.534 40.0742 324.322 40.8359 324.934 41.8125C325.441 42.6458 325.78 43.6354 325.949 44.7812C326.118 45.9141 326.203 47.3203 326.203 49C326.203 50.6797 326.118 52.0924 325.949 53.2383C325.78 54.3711 325.441 55.3542 324.934 56.1875C324.322 57.1641 323.534 57.9323 322.57 58.4922C321.62 59.0391 320.539 59.3125 319.328 59.3125C318.117 59.3125 317.03 59.0391 316.066 58.4922C315.116 57.9323 314.335 57.1641 313.723 56.1875C313.215 55.3542 312.876 54.3711 312.707 53.2383C312.538 52.0924 312.453 50.6797 312.453 49C312.453 47.3203 312.538 45.9141 312.707 44.7812C312.876 43.6354 313.215 42.6458 313.723 41.8125C314.335 40.8359 315.116 40.0742 316.066 39.5273ZM320.813 44.7227C320.487 43.8242 319.992 43.375 319.328 43.375C318.664 43.375 318.169 43.8242 317.844 44.7227C317.583 45.4388 317.453 46.8646 317.453 49C317.453 51.1354 317.583 52.5612 317.844 53.2773C318.169 54.1758 318.664 54.625 319.328 54.625C319.992 54.625 320.487 54.1758 320.813 53.2773C321.073 52.5612 321.203 51.1354 321.203 49C321.203 46.8646 321.073 45.4388 320.813 44.7227ZM338.088 46.5781H339.24C339.566 46.5781 339.794 46.5586 339.924 46.5195C340.197 46.4544 340.412 46.2982 340.568 46.0508C340.738 45.8034 340.822 45.4974 340.822 45.1328C340.822 44.7682 340.738 44.4622 340.568 44.2148C340.412 43.9674 340.197 43.8112 339.924 43.7461C339.742 43.707 339.514 43.6875 339.24 43.6875H338.088V46.5781ZM338.088 54.3125H338.869C339.169 54.3125 339.501 54.2865 339.865 54.2344C340.282 54.1562 340.607 53.9935 340.842 53.7461C341.089 53.4857 341.213 53.1667 341.213 52.7891C341.213 52.4115 341.089 52.0924 340.842 51.832C340.607 51.5716 340.282 51.4023 339.865 51.3242C339.592 51.2852 339.26 51.2656 338.869 51.2656H338.088V54.3125ZM333.088 59V39H340.275C341.083 39 341.727 39.0586 342.209 39.1758C343.277 39.4362 344.143 40.0482 344.807 41.0117C345.484 41.9753 345.822 43.1536 345.822 44.5469C345.822 45.4714 345.66 46.2982 345.334 47.0273C345.008 47.7565 344.572 48.349 344.025 48.8047C345.484 49.9635 346.213 51.487 346.213 53.375C346.213 54.7292 345.822 55.8815 345.041 56.832C344.26 57.7826 343.225 58.4271 341.936 58.7656C341.35 58.9219 340.536 59 339.494 59H333.088ZM360.598 50.7773H359.27C358.632 50.7773 358.169 50.9661 357.883 51.3437C357.609 51.7083 357.473 52.2878 357.473 53.082C357.473 53.5247 357.577 53.8958 357.785 54.1953C357.993 54.4818 358.293 54.625 358.684 54.625C359.126 54.625 359.484 54.5143 359.758 54.293C360.044 54.0716 360.24 53.7591 360.344 53.3555C360.461 52.9388 360.533 52.5872 360.559 52.3008C360.585 52.0143 360.598 51.6562 360.598 51.2266V50.7773ZM359.973 38.6875C361.092 38.6875 362.076 38.8633 362.922 39.2148C363.768 39.5534 364.465 40.2044 365.012 41.168C365.402 41.8581 365.598 42.9258 365.598 44.3711V59H360.598V57.9648H360.402C359.673 58.8633 358.749 59.3125 357.629 59.3125C356.249 59.3125 355.044 58.7201 354.016 57.5352C352.987 56.3503 352.473 54.8789 352.473 53.1211C352.473 51.207 353.046 49.6315 354.191 48.3945C354.608 47.9518 355.051 47.5937 355.52 47.3203C356.001 47.0339 356.49 46.8385 356.984 46.7344C357.492 46.6302 357.896 46.5651 358.195 46.5391C358.508 46.513 358.879 46.5 359.309 46.5H360.598V44.4688C360.598 44.2083 360.487 43.9674 360.266 43.7461C360.044 43.5117 359.758 43.3945 359.406 43.3945C358.208 43.3945 356.522 43.5182 354.348 43.7656V39.0586C356.496 38.8112 358.371 38.6875 359.973 38.6875ZM388.107 39V43.8828H381.857V59H376.857V43.8828H370.607V39H388.107ZM398.137 45.3281H399.523C400.565 45.3281 401.379 45.4062 401.965 45.5625C403.254 45.9141 404.289 46.6823 405.07 47.8672C405.852 49.0391 406.242 50.4714 406.242 52.1641C406.242 53.8568 405.852 55.2956 405.07 56.4805C404.289 57.6523 403.254 58.4141 401.965 58.7656C401.379 58.9219 400.565 59 399.523 59H393.117V39H398.137V45.3281ZM398.117 50.0156V54.3125H399.523C400.669 54.3125 401.242 53.5964 401.242 52.1641C401.242 50.7318 400.669 50.0156 399.523 50.0156H398.117ZM440.871 44.7227C440.546 43.8242 440.051 43.375 439.387 43.375C438.723 43.375 438.228 43.8242 437.902 44.7227C437.642 45.4388 437.512 46.8646 437.512 49C437.512 51.1354 437.642 52.5612 437.902 53.2773C438.228 54.1758 438.723 54.625 439.387 54.625C440.051 54.625 440.546 54.1758 440.871 53.2773C441.132 52.5612 441.262 51.1354 441.262 49C441.262 46.8646 441.132 45.4388 440.871 44.7227ZM440.051 38.8828C441.431 38.8828 442.603 39.2539 443.566 39.9961C444.53 40.7253 445.194 41.6628 445.559 42.8086C446.027 44.2409 446.262 46.3047 446.262 49C446.262 49.9896 446.249 50.7578 446.223 51.3047C446.21 51.8385 446.138 52.4701 446.008 53.1992C445.891 53.9154 445.715 54.5794 445.48 55.1914C444.4 57.9388 442.238 59.3125 438.996 59.3125C437.707 59.3125 436.548 58.9219 435.52 58.1406C434.491 57.3464 433.749 56.3633 433.293 55.1914C432.772 53.8242 432.512 52.1771 432.512 50.25C432.512 47.6458 432.518 45.7383 432.531 44.5273C432.544 43.3034 432.583 42.0404 432.648 40.7383C432.714 39.4232 432.811 38.4727 432.941 37.8867C433.41 35.8424 434.322 34.319 435.676 33.3164C436.509 32.6914 437.375 32.2422 438.273 31.9687C439.185 31.6953 439.979 31.5651 440.656 31.5781C441.346 31.5781 442.167 31.5586 443.117 31.5195C444.068 31.4674 444.908 31.3437 445.637 31.1484V35.8945C444.908 36.0768 444.022 36.181 442.98 36.207C441.952 36.2331 441.047 36.3047 440.266 36.4219C439.484 36.526 438.814 36.7865 438.254 37.2031C437.72 37.6068 437.434 38.4531 437.395 39.7422H437.59C438.358 39.1693 439.178 38.8828 440.051 38.8828ZM460.646 59V49.1562H460.451L457.365 59H453.146V39H458.146V49.0391H458.342L461.447 39H465.646V59H460.646ZM485.656 39V59H480.656V43.6875H478.156V52.6719C478.156 53.8047 478.007 54.7747 477.707 55.582C477.408 56.3893 476.913 57.099 476.223 57.7109C475.546 58.3099 474.777 58.7266 473.918 58.9609C473.072 59.1953 471.984 59.3125 470.656 59.3125V54.625C471.581 54.625 472.219 54.4818 472.57 54.1953C472.961 53.8698 473.156 53.362 473.156 52.6719V39H485.656ZM499.416 38.6875C500.926 38.6875 502.215 39.0586 503.283 39.8008C504.351 40.5299 505.113 41.4674 505.568 42.6133C505.79 43.1732 505.952 43.8307 506.057 44.5859C506.174 45.3411 506.239 46.0117 506.252 46.5977C506.278 47.1706 506.291 47.9714 506.291 49V51.3437H497.561C497.561 52.4115 497.658 53.1602 497.854 53.5898C498.192 54.2799 498.843 54.625 499.807 54.625C501.226 54.625 503.179 54.4948 505.666 54.2344V58.9023C503.296 59.1758 501.343 59.3125 499.807 59.3125C498.192 59.3125 496.831 58.9349 495.725 58.1797C494.618 57.4245 493.817 56.4414 493.322 55.2305C492.984 54.4102 492.769 53.5312 492.678 52.5937C492.587 51.6562 492.541 50.4583 492.541 49C492.541 47.5026 492.58 46.2721 492.658 45.3086C492.749 44.332 492.951 43.4336 493.264 42.6133C493.693 41.4544 494.442 40.5104 495.51 39.7812C496.59 39.0521 497.893 38.6875 499.416 38.6875ZM499.416 43.375C499.195 43.375 498.993 43.401 498.811 43.4531C498.628 43.4922 498.472 43.5768 498.342 43.707C498.225 43.8242 498.12 43.9349 498.029 44.0391C497.938 44.1302 497.86 44.293 497.795 44.5273C497.743 44.7487 497.697 44.9245 497.658 45.0547C497.632 45.1849 497.606 45.4062 497.58 45.7187C497.567 46.0182 497.561 46.2331 497.561 46.3633C497.561 46.4805 497.554 46.7083 497.541 47.0469H501.291C501.265 45.7057 501.161 44.8203 500.979 44.3906C500.718 43.7135 500.197 43.375 499.416 43.375ZM528.176 39V43.8828H521.926V59H516.926V43.8828H510.676V39H528.176Z" fill="#1E1E1E"/>
</svg>
