<svg width="1376" height="323" viewBox="0 0 1376 323" fill="none" xmlns="http://www.w3.org/2000/svg">
<path d="M57.4956 319.411H0V3.5889H57.4956L99.4943 101.835H101.965L143.739 3.5889H201.235V319.411H143.739V118.433H141.493L112.97 175.856H88.2647L59.7415 117.536H57.4956V319.411Z" fill="#F6F6F6"/>
<path d="M290.815 103.629C288.57 115.891 287.447 135.181 287.447 161.5C287.447 187.819 288.57 207.109 290.815 219.371C293.511 233.876 298.452 245.839 305.639 255.26C312.975 264.531 322.483 269.167 334.162 269.167C345.841 269.167 355.273 264.531 362.46 255.26C369.797 245.839 374.813 233.876 377.508 219.371C379.754 206.959 380.877 187.669 380.877 161.5C380.877 135.181 379.754 115.891 377.508 103.629C374.813 89.1241 369.797 77.2359 362.46 67.9646C355.273 58.5438 345.841 53.8333 334.162 53.8333C322.483 53.8333 312.975 58.5438 305.639 67.9646C298.452 77.2359 293.511 89.1241 290.815 103.629ZM236.24 239.783C232.047 223.184 229.951 197.09 229.951 161.5C229.951 125.91 232.047 99.816 236.24 83.2174C242.229 58.9924 253.533 39.1039 270.153 23.5521C286.773 7.85069 308.109 0 334.162 0C360.214 0 381.551 7.85069 398.171 23.5521C414.79 39.1039 426.095 58.9924 432.084 83.2174C436.276 99.816 438.372 125.91 438.372 161.5C438.372 197.09 436.276 223.184 432.084 239.783C426.095 264.008 414.79 283.971 398.171 299.672C381.551 315.224 360.214 323 334.162 323C308.109 323 286.773 315.224 270.153 299.672C253.533 283.971 242.229 264.008 236.24 239.783Z" fill="#F6F6F6"/>
<path d="M538.958 319.411H481.463V3.5889H538.734L594.208 182.585H596.454V3.5889H653.95V319.411H596.454L541.204 140.415H538.958V319.411Z" fill="#F6F6F6"/>
<path d="M757.904 103.629C755.658 115.891 754.535 135.181 754.535 161.5C754.535 187.819 755.658 207.109 757.904 219.371C760.599 233.876 765.54 245.839 772.727 255.26C780.064 264.531 789.572 269.167 801.251 269.167C812.929 269.167 822.362 264.531 829.549 255.26C836.886 245.839 841.902 233.876 844.597 219.371C846.843 206.959 847.966 187.669 847.966 161.5C847.966 135.181 846.843 115.891 844.597 103.629C841.902 89.1241 836.886 77.2359 829.549 67.9646C822.362 58.5438 812.929 53.8333 801.251 53.8333C789.572 53.8333 780.064 58.5438 772.727 67.9646C765.54 77.2359 760.599 89.1241 757.904 103.629ZM703.328 239.783C699.136 223.184 697.04 197.09 697.04 161.5C697.04 125.91 699.136 99.816 703.328 83.2174C709.318 58.9924 720.622 39.1039 737.242 23.5521C753.862 7.85069 775.198 0 801.251 0C827.303 0 848.64 7.85069 865.259 23.5521C881.879 39.1039 893.184 58.9924 899.173 83.2174C903.365 99.816 905.461 125.91 905.461 161.5C905.461 197.09 903.365 223.184 899.173 239.783C893.184 264.008 881.879 283.971 865.259 299.672C848.64 315.224 827.303 323 801.251 323C775.198 323 753.862 315.224 737.242 299.672C720.622 283.971 709.318 264.008 703.328 239.783Z" fill="#F6F6F6"/>
<path d="M1110.69 3.5889V57.4222H1053.19V265.578H1110.69V319.411H938.202V265.578H995.698V57.4222H938.202V3.5889H1110.69Z" fill="#F6F6F6"/>
<path d="M1248.88 3.5889C1297.09 3.5889 1332.2 21.309 1354.21 56.7493C1362.75 70.2076 1368.51 85.4604 1371.51 102.508C1374.5 119.555 1376 139.219 1376 161.5C1376 183.781 1374.5 203.445 1371.51 220.492C1368.51 237.54 1362.75 252.792 1354.21 266.251C1332.2 301.691 1297.09 319.411 1248.88 319.411H1171.17V3.5889H1248.88ZM1305.7 236.867C1314.24 222.511 1318.5 197.389 1318.5 161.5C1318.5 125.611 1314.24 100.489 1305.7 86.1333C1294.47 66.9926 1277.1 57.4222 1253.6 57.4222H1228.67V265.578H1253.6C1277.1 265.578 1294.47 256.007 1305.7 236.867Z" fill="#F6F6F6"/>
</svg>
