<svg width="329" height="341" viewBox="0 0 329 341" fill="none" xmlns="http://www.w3.org/2000/svg">
<rect width="329" height="341" rx="8" fill="#F6F6F6"/>
<path d="M79.5938 165.375C80.1979 164 80.5 162.5 80.5 160.875C80.5 159.25 80.1979 157.76 79.5938 156.406C78.9896 155.031 78.1771 153.906 77.1562 153.031C76.5312 152.49 75.8542 152.052 75.125 151.719C74.4167 151.385 73.6458 151.156 72.8125 151.031C71.9792 150.906 71.3021 150.833 70.7813 150.812C70.2604 150.771 69.5521 150.75 68.6562 150.75H64V171H68.6562C69.8229 171 70.7708 170.979 71.5 170.938C72.2292 170.875 73.1458 170.667 74.25 170.312C75.375 169.938 76.3438 169.406 77.1562 168.719C78.1771 167.844 78.9896 166.729 79.5938 165.375ZM68.6562 147C69.6771 147 70.5104 147.021 71.1563 147.062C71.8229 147.104 72.7083 147.219 73.8125 147.406C74.9375 147.573 76 147.906 77 148.406C78.0208 148.885 78.9688 149.51 79.8438 150.281C82.9479 153.031 84.5 156.562 84.5 160.875C84.5 165.188 82.9479 168.719 79.8438 171.469C79.1146 172.115 78.3021 172.667 77.4062 173.125L85.2812 191H81.0313L73.625 174.406C72.375 174.635 70.7188 174.75 68.6562 174.75H64V191H60V147H68.6562Z" fill="#0D0D0D"/>
<path d="M105.828 163.25C104.786 162.583 103.516 162.25 102.016 162.25C100.516 162.25 99.2344 162.583 98.1719 163.25C97.1302 163.917 96.3802 164.844 95.9219 166.031C95.4844 167.031 95.2031 168.771 95.0781 171.25H108.953C108.828 168.771 108.547 167.031 108.109 166.031C107.651 164.844 106.891 163.917 105.828 163.25ZM95.7656 160.25C97.4948 159.083 99.5781 158.5 102.016 158.5C104.453 158.5 106.526 159.083 108.234 160.25C109.964 161.417 111.172 162.927 111.859 164.781C112.214 165.677 112.474 166.729 112.641 167.938C112.828 169.146 112.932 170.219 112.953 171.156C112.995 172.073 113.016 173.354 113.016 175H95.0156C95.0156 176.417 95.026 177.51 95.0469 178.281C95.0677 179.031 95.151 179.938 95.2969 181C95.4635 182.062 95.7031 182.948 96.0156 183.656C97.224 186.385 99.4323 187.75 102.641 187.75C105.057 187.75 108.182 187.531 112.016 187.094V190.844C108.224 191.281 105.099 191.5 102.641 191.5C100.057 191.5 97.8802 190.896 96.1094 189.688C94.3385 188.479 93.0573 186.906 92.2656 184.969C91.724 183.656 91.3802 182.25 91.2344 180.75C91.0885 179.25 91.0156 177.333 91.0156 175C91.0156 173.354 91.026 172.073 91.0469 171.156C91.0885 170.219 91.1927 169.146 91.3594 167.938C91.5469 166.729 91.8177 165.677 92.1719 164.781C92.8594 162.927 94.0573 161.417 95.7656 160.25Z" fill="#0D0D0D"/>
<path d="M129.688 163.688C127.917 165.333 127.031 168.438 127.031 173C127.031 177.562 127.917 180.667 129.688 182.312C130.708 183.271 131.99 183.75 133.531 183.75C135.073 183.75 136.354 183.271 137.375 182.312C139.146 180.667 140.031 177.562 140.031 173C140.031 168.438 139.146 165.333 137.375 163.688C136.354 162.729 135.073 162.25 133.531 162.25C131.99 162.25 130.708 162.729 129.688 163.688ZM140.031 183.094H139.719C137.823 186.031 135.552 187.5 132.906 187.5C130.448 187.5 128.354 186.656 126.625 184.969C124.229 182.594 123.031 178.604 123.031 173C123.031 167.396 124.229 163.406 126.625 161.031C128.354 159.344 130.448 158.5 132.906 158.5C135.552 158.5 137.823 159.969 139.719 162.906H140.031V159H144.031V186C144.031 189.563 143.396 192.406 142.125 194.531C140.146 197.844 137.031 199.5 132.781 199.5C130.365 199.5 127.906 199.344 125.406 199.031V195.281C128.219 195.594 130.677 195.75 132.781 195.75C135.427 195.75 137.385 194.729 138.656 192.688C139.573 191.208 140.031 188.979 140.031 186V183.094Z" fill="#0D0D0D"/>
<path d="M165.422 191.5C163.922 191.5 162.547 191.198 161.297 190.594C160.047 189.99 159.016 189.177 158.203 188.156C157.682 187.51 157.266 186.844 156.953 186.156C156.641 185.469 156.422 184.708 156.297 183.875C156.193 183.042 156.12 182.354 156.078 181.812C156.057 181.271 156.047 180.51 156.047 179.531V159H160.047V179.531C160.047 180.677 160.057 181.531 160.078 182.094C160.12 182.656 160.245 183.292 160.453 184C160.682 184.688 161.016 185.292 161.453 185.812C162.578 187.104 164.109 187.75 166.047 187.75C167.984 187.75 169.516 187.104 170.641 185.812C171.078 185.292 171.401 184.688 171.609 184C171.839 183.292 171.964 182.656 171.984 182.094C172.026 181.531 172.047 180.677 172.047 179.531V159H176.047V191H172.047V187.5H171.734C170.964 188.708 170.005 189.677 168.859 190.406C167.734 191.135 166.589 191.5 165.422 191.5Z" fill="#0D0D0D"/>
<path d="M208.062 191.344C206.083 191.448 204.646 191.5 203.75 191.5C201.521 191.5 199.719 190.792 198.344 189.375C197.635 188.646 197.104 187.802 196.75 186.844C196.396 185.865 196.188 185.094 196.125 184.531C196.083 183.948 196.062 183.198 196.062 182.281V147H200.062V182.281C200.062 182.927 200.073 183.427 200.094 183.781C200.115 184.135 200.188 184.562 200.312 185.062C200.458 185.562 200.667 186 200.938 186.375C201.625 187.292 202.667 187.75 204.062 187.75C205.479 187.75 206.812 187.698 208.062 187.594V191.344Z" fill="#0D0D0D"/>
<path d="M236.078 175H229.953C229.182 175 228.578 175.021 228.141 175.062C227.724 175.104 227.193 175.26 226.547 175.531C225.901 175.781 225.328 176.167 224.828 176.688C223.661 177.917 223.078 179.531 223.078 181.531C223.078 183.302 223.578 184.781 224.578 185.969C225.599 187.156 226.974 187.75 228.703 187.75C229.703 187.75 230.589 187.604 231.359 187.312C232.151 187.021 232.797 186.656 233.297 186.219C233.818 185.781 234.255 185.208 234.609 184.5C234.984 183.792 235.255 183.135 235.422 182.531C235.609 181.906 235.755 181.167 235.859 180.312C235.964 179.458 236.026 178.76 236.047 178.219C236.068 177.677 236.078 177.031 236.078 176.281V175ZM231.078 158.5C232.87 158.5 234.443 158.781 235.797 159.344C237.151 159.885 238.266 160.927 239.141 162.469C239.766 163.573 240.078 165.281 240.078 167.594V191H236.078V187.156H235.766C233.661 190.052 231.057 191.5 227.953 191.5C225.453 191.5 223.349 190.563 221.641 188.688C219.932 186.812 219.078 184.448 219.078 181.594C219.078 178.594 219.995 176.177 221.828 174.344C222.495 173.698 223.203 173.167 223.953 172.75C224.703 172.333 225.484 172.052 226.297 171.906C227.13 171.74 227.776 171.646 228.234 171.625C228.714 171.583 229.307 171.562 230.016 171.562H236.078V167.75C236.078 165.938 235.891 164.708 235.516 164.062C235.161 163.458 234.651 163.01 233.984 162.719C233.339 162.406 232.37 162.25 231.078 162.25C228.578 162.25 225.578 162.469 222.078 162.906V159.094C225.516 158.698 228.516 158.5 231.078 158.5Z" fill="#0D0D0D"/>
<path d="M266.469 162.25C263.635 162.25 261.396 163.01 259.75 164.531C258.896 165.323 258.198 166.198 257.656 167.156C257.115 168.115 256.74 169.188 256.531 170.375C256.323 171.542 256.198 172.49 256.156 173.219C256.115 173.948 256.094 174.927 256.094 176.156V191H252.094V159H256.094V163.969H256.406C257.698 162.219 259.125 160.875 260.688 159.938C262.271 158.979 264.198 158.5 266.469 158.5C268.01 158.5 269.885 158.635 272.094 158.906V162.656C269.885 162.385 268.01 162.25 266.469 162.25Z" fill="#0D0D0D"/>
</svg>
