<svg width="231" height="231" viewBox="0 0 231 231" fill="none" xmlns="http://www.w3.org/2000/svg">
<rect x="0.5" y="0.5" width="230" height="230" rx="7.5" fill="#0D0D0D" stroke="#F6F6F6"/>
<path d="M25.6966 95.7208V115.726H30.4643C31.6589 115.726 32.6295 115.705 33.3761 115.664C34.1227 115.602 35.0613 115.397 36.1919 115.047C37.3438 114.676 38.3358 114.151 39.1677 113.472C40.213 112.608 41.045 111.507 41.6636 110.169C42.2822 108.811 42.5915 107.329 42.5915 105.723C42.5915 104.118 42.2822 102.646 41.6636 101.309C41.045 99.9503 40.213 98.8389 39.1677 97.9745C38.5278 97.4393 37.8345 97.0071 37.0879 96.6778C36.3626 96.3485 35.5733 96.1221 34.72 95.9987C33.8667 95.8752 33.1734 95.8031 32.6401 95.7825C32.1068 95.7414 31.3816 95.7208 30.4643 95.7208H25.6966ZM21.6008 92.0162H30.4643C31.5095 92.0162 32.3628 92.0368 33.0241 92.0779C33.7067 92.1191 34.6134 92.2323 35.7439 92.4175C36.8959 92.5822 37.9838 92.9115 39.0077 93.4054C40.053 93.8788 41.0236 94.4962 41.9196 95.2577C45.098 97.9745 46.6873 101.463 46.6873 105.723C46.6873 109.984 45.098 113.472 41.9196 116.189C41.1729 116.827 40.341 117.372 39.4237 117.825L47.4872 135.484H43.1355L35.552 119.091C34.272 119.317 32.5761 119.43 30.4643 119.43H25.6966V135.484H21.6008V92.0162Z" fill="#5C96FF"/>
<path d="M72.6377 108.07C71.5711 107.411 70.2698 107.082 68.7339 107.082C67.198 107.082 65.8861 107.411 64.7981 108.07C63.7315 108.728 62.9636 109.644 62.4943 110.817C62.0463 111.805 61.7583 113.524 61.6303 115.973H75.8375C75.7095 113.524 75.4215 111.805 74.9735 110.817C74.5042 109.644 73.7256 108.728 72.6377 108.07ZM62.3343 105.106C64.1049 103.953 66.238 103.377 68.7339 103.377C71.2297 103.377 73.3523 103.953 75.1015 105.106C76.8721 106.258 78.1093 107.751 78.8133 109.582C79.1759 110.467 79.4426 111.507 79.6132 112.7C79.8052 113.894 79.9119 114.954 79.9332 115.88C79.9759 116.786 79.9972 118.052 79.9972 119.677H61.5663C61.5663 121.077 61.577 122.158 61.5983 122.919C61.6197 123.66 61.705 124.555 61.8543 125.605C62.025 126.655 62.2703 127.529 62.5903 128.229C63.8275 130.925 66.0887 132.273 69.3739 132.273C71.8484 132.273 75.0482 132.057 78.9733 131.625V135.33C75.0908 135.762 71.891 135.978 69.3739 135.978C66.7287 135.978 64.4995 135.381 62.6863 134.187C60.8731 132.994 59.5611 131.44 58.7505 129.526C58.1959 128.229 57.8439 126.84 57.6946 125.358C57.5453 123.876 57.4706 121.983 57.4706 119.677C57.4706 118.052 57.4813 116.786 57.5026 115.88C57.5453 114.954 57.6519 113.894 57.8226 112.7C58.0146 111.507 58.2919 110.467 58.6545 109.582C59.3585 107.751 60.5851 106.258 62.3343 105.106Z" fill="#5C96FF"/>
<path d="M113.771 135.515C111.489 135.823 109.441 135.978 107.627 135.978C105.921 135.978 104.364 135.679 102.956 135.083C101.569 134.486 100.439 133.673 99.564 132.644C98.8814 131.862 98.3694 130.946 98.0281 129.896C97.6868 128.846 97.4948 127.972 97.4521 127.272C97.4094 126.572 97.3881 125.605 97.3881 124.37V107.761H89.1966V103.871H97.3881V95.9678H101.484V103.871H113.771V107.761H101.484V124.061C101.484 125.193 101.495 126.037 101.516 126.593C101.559 127.148 101.687 127.786 101.9 128.507C102.113 129.227 102.433 129.845 102.86 130.359C103.969 131.635 105.665 132.273 107.947 132.273C109.462 132.273 111.403 132.119 113.771 131.81V135.515Z" fill="#5C96FF"/>
<path d="M132.73 92.4792C133.391 91.8412 134.255 91.5222 135.322 91.5222C136.388 91.5222 137.252 91.8412 137.914 92.4792C138.575 93.1173 138.906 93.9508 138.906 94.9799C138.906 96.0089 138.575 96.8425 137.914 97.4805C137.252 98.1185 136.388 98.4375 135.322 98.4375C134.255 98.4375 133.391 98.1185 132.73 97.4805C132.069 96.8425 131.738 96.0089 131.738 94.9799C131.738 93.9508 132.069 93.1173 132.73 92.4792ZM134.298 135.484V107.576H126.106V103.871H138.394V135.484H134.298Z" fill="#5C96FF"/>
<path d="M165.656 103.377C167.192 103.377 168.6 103.675 169.88 104.272C171.16 104.869 172.215 105.672 173.047 106.68C173.581 107.318 174.007 107.977 174.327 108.656C174.647 109.335 174.861 110.087 174.967 110.91C175.095 111.733 175.17 112.412 175.191 112.947C175.234 113.482 175.255 114.234 175.255 115.201V135.484H171.16V115.201C171.16 114.069 171.138 113.225 171.096 112.67C171.074 112.114 170.946 111.496 170.712 110.817C170.498 110.117 170.168 109.51 169.72 108.996C168.568 107.72 167 107.082 165.016 107.082C163.032 107.082 161.464 107.72 160.312 108.996C159.864 109.51 159.523 110.117 159.288 110.817C159.075 111.496 158.947 112.114 158.904 112.67C158.883 113.225 158.872 114.069 158.872 115.201V135.484H154.777V103.871H158.872V107.329H159.192C159.982 106.135 160.952 105.178 162.104 104.458C163.277 103.737 164.461 103.377 165.656 103.377Z" fill="#5C96FF"/>
<path d="M203.941 119.677H197.67C196.881 119.677 196.262 119.698 195.814 119.739C195.387 119.78 194.843 119.935 194.182 120.202C193.521 120.449 192.934 120.83 192.422 121.345C191.228 122.559 190.63 124.154 190.63 126.13C190.63 127.879 191.142 129.34 192.166 130.514C193.211 131.687 194.619 132.273 196.39 132.273C197.414 132.273 198.32 132.129 199.11 131.841C199.92 131.553 200.582 131.193 201.094 130.76C201.627 130.328 202.075 129.762 202.438 129.063C202.822 128.363 203.099 127.714 203.27 127.118C203.462 126.5 203.611 125.77 203.717 124.926C203.824 124.082 203.888 123.392 203.909 122.857C203.931 122.322 203.941 121.684 203.941 120.943V119.677ZM198.822 103.377C200.656 103.377 202.267 103.655 203.653 104.211C205.04 104.746 206.181 105.775 207.077 107.298C207.717 108.389 208.037 110.076 208.037 112.361V135.484H203.941V131.687H203.621C201.467 134.547 198.8 135.978 195.622 135.978C193.062 135.978 190.908 135.052 189.158 133.199C187.409 131.347 186.535 129.011 186.535 126.191C186.535 123.228 187.473 120.84 189.35 119.029C190.033 118.391 190.758 117.866 191.526 117.455C192.294 117.043 193.094 116.765 193.926 116.621C194.779 116.456 195.441 116.364 195.91 116.343C196.401 116.302 197.009 116.282 197.734 116.282H203.941V112.515C203.941 110.725 203.749 109.51 203.366 108.872C203.003 108.275 202.48 107.833 201.798 107.545C201.136 107.236 200.144 107.082 198.822 107.082C196.262 107.082 193.19 107.298 189.606 107.73V103.964C193.126 103.573 196.198 103.377 198.822 103.377Z" fill="#5C96FF"/>
</svg>
